HIERARCHY
ROOT Hips
{
	OFFSET 0.0000 0.0000 0.0000
	CHANNELS 6 Xposition Yposition Zposition Zrotation Xrotation Yrotation
	JOINT Ab
	{
		OFFSET -0.0000 8.1305 -0.0000
		CHANNELS 3 Zrotation Xrotation Yrotation
		JOINT Chest
		{
			OFFSET -0.0000 26.2902 -0.0000
			CHANNELS 3 Zrotation Xrotation Yrotation
			JOINT Neck
			{
				OFFSET -0.0000 26.2902 0.0000
				CHANNELS 3 Zrotation Xrotation Yrotation
				JOINT Head
				{
					OFFSET -0.0000 10.8167 0.0000
					CHANNELS 3 Zrotation Xrotation Yrotation
					End Site
					{
						OFFSET -0.0000 16.7167 0.0000
					}
				}
			}
			JOINT LeftCollar
			{
				OFFSET -0.0000 26.2902 0.0000
				CHANNELS 3 Zrotation Xrotation Yrotation
				JOINT LeftShoulder
				{
					OFFSET 19.6667 -0.0000 0.0000
					CHANNELS 3 Zrotation Xrotation Yrotation
					JOINT LeftElbow
					{
						OFFSET 27.2190 0.0000 0.0000
						CHANNELS 3 Zrotation Xrotation Yrotation
						JOINT LeftWrist
						{
							OFFSET 30.7431 0.0000 0.0000
							CHANNELS 3 Zrotation Xrotation Yrotation
							End Site
							{
								OFFSET 0.0000 -14.7500 0.0000
							}
						}
					}
				}
			}
			JOINT RightCollar
			{
				OFFSET -0.0000 26.2902 0.0000
				CHANNELS 3 Zrotation Xrotation Yrotation
				JOINT RightShoulder
				{
					OFFSET -19.6667 0.0000 0.0000
					CHANNELS 3 Zrotation Xrotation Yrotation
					JOINT RightElbow
					{
						OFFSET -27.2190 0.0000 0.0000
						CHANNELS 3 Zrotation Xrotation Yrotation
						JOINT RightWrist
						{
							OFFSET -30.7431 0.0000 0.0000
							CHANNELS 3 Zrotation Xrotation Yrotation
							End Site
							{
								OFFSET -0.0000 -14.7500 0.0000
							}
						}
					}
				}
			}
		}
	}
	JOINT LeftHip
	{
		OFFSET 11.8000 0.0000 0.0000
		CHANNELS 3 Zrotation Xrotation Yrotation
		JOINT LeftKnee
		{
			OFFSET -0.0000 -39.7832 0.0000
			CHANNELS 3 Zrotation Xrotation Yrotation
			JOINT LeftAnkle
			{
				OFFSET -0.0000 -41.7317 0.0000
				CHANNELS 3 Zrotation Xrotation Yrotation
				End Site
				{
					OFFSET -0.0000 -4.9167 16.7167
				}
			}
		}
	}
	JOINT RightHip
	{
		OFFSET -11.8000 0.0000 0.0000
		CHANNELS 3 Zrotation Xrotation Yrotation
		JOINT RightKnee
		{
			OFFSET -0.0000 -39.7832 0.0000
			CHANNELS 3 Zrotation Xrotation Yrotation
			JOINT RightAnkle
			{
				OFFSET -0.0000 -41.7317 0.0000
				CHANNELS 3 Zrotation Xrotation Yrotation
				End Site
				{
					OFFSET -0.0000 -4.9167 16.7167
				}
			}
		}
	}
}
MOTION
Frames: 18
Frame Time: 0.010000
-18.9528 97.2141 175.5969 357.0597 357.6129 176.1466 357.2638 347.5158 359.8167 0.7542 8.1373 0.0945 2.7675 356.5180 2.2857 351.9690 3.2693 2.4291 338.3560 357.2374 14.2728 319.7450 56.5260 339.9475 5.9417 358.3239 328.1674 85.4868 358.5801 342.7047 27.3265 355.9802 343.6282 48.7765 45.3127 2.0108 341.9373 355.0173 30.6714 272.3467 354.5219 13.4259 355.8806 4.3547 357.9591 358.3556 5.4300 9.7854 354.0728 351.7352 12.3492 356.1357 6.9525 9.3886 6.0379 5.0944 11.8579 347.4578 346.2165 312.4923 
-18.9572 97.2143 175.5859 357.0533 357.6015 176.1373 357.2639 347.5013 359.8664 0.7780 8.1484 0.0556 2.6516 356.5421 2.3237 352.0741 3.2388 2.4684 338.3285 357.2466 14.3608 319.7801 56.4914 339.9008 5.8626 358.3373 328.1658 85.5456 358.6044 342.6732 27.3282 356.0053 343.6913 48.7099 45.3085 2.0068 342.0235 355.0333 30.6926 272.3088 354.5475 13.4916 355.8736 4.3413 357.9288 358.3406 5.4528 9.8032 354.1181 351.6970 12.3382 356.1220 6.9578 9.4427 6.0371 5.0691 11.8507 347.4216 346.2640 312.4850 
-18.9586 97.2144 175.5826 357.0586 357.5865 176.1418 357.2714 347.4960 359.8136 0.7498 8.1587 0.0908 2.8324 356.5290 2.2860 351.9025 3.2519 2.4296 338.3566 357.2398 14.2901 319.7928 56.5227 339.8889 5.9017 358.3206 328.1756 85.5141 358.5894 342.6795 27.3481 355.9912 343.6248 48.6814 45.2754 2.0595 341.9695 355.0176 30.6807 272.5536 354.6755 13.7773 355.8881 4.3026 357.8986 358.3151 5.5109 9.7980 354.1934 351.6444 12.3550 356.1269 6.9538 9.4591 6.0379 5.0527 11.8342 347.4141 346.2668 312.4831 
-18.9631 97.2155 175.5733 357.0548 357.5800 176.1409 357.2742 347.4930 359.8520 0.7653 8.1616 0.0497 2.6721 356.5161 2.3147 352.0290 3.2874 2.4635 338.3212 357.2467 14.3657 319.8555 56.4856 339.8367 5.8400 358.3424 328.1746 85.5348 358.6002 342.6837 27.3511 356.0131 343.6975 48.6531 45.2662 2.0266 342.0234 355.0138 30.6980 272.5085 354.6799 13.7990 355.8851 4.2770 357.8600 358.3004 5.5654 9.7968 354.1419 351.5818 12.4168 356.1183 6.9688 9.4885 6.0413 5.0217 11.8275 347.4241 346.2594 312.4573 
-18.9652 97.2147 175.5697 357.0571 357.5590 176.1437 357.2790 347.4905 359.8219 0.7412 8.1538 0.0691 2.7802 356.5304 2.2891 351.9639 3.2690 2.4342 338.3348 357.2527 14.3076 319.8624 56.4800 339.8487 5.8654 358.3494 328.1732 85.4266 358.5982 342.6386 27.3654 355.9934 343.6690 48.6553 45.2287 2.0281 341.9965 355.0278 30.6985 272.5623 354.6472 13.8482 355.8959 4.2228 357.8341 358.2841 5.6366 9.7492 354.2558 351.5135 12.4411 356.1203 6.9587 9.5110 6.0397 5.0053 11.8027 347.4625 346.2331 312.4598 
-18.9690 97.2121 175.5629 357.0594 357.5373 176.1353 357.2496 347.5055 359.8382 0.8003 8.1109 0.0918 2.7614 356.5501 2.2993 352.0048 3.2557 2.4431 338.3154 357.2272 14.3250 319.8549 56.5009 339.8547 5.8805 358.3184 328.1865 85.4467 358.5897 342.6764 27.3415 356.0126 343.6648 48.6389 45.2224 2.0068 342.0431 355.0372 30.7189 272.4700 354.6430 13.8145 355.9031 4.1702 357.8231 358.2629 5.7149 9.7126 354.1705 351.4210 12.5166 356.1186 6.9520 9.5465 6.0424 4.9767 11.7658 347.4768 346.2187 312.4564 
-18.9742 97.2094 175.5573 357.0661 357.5207 176.1343 357.1333 347.6577 359.9215 0.9966 7.8263 0.1458 2.5495 356.6395 2.3125 352.3925 3.2519 2.4531 338.2101 357.2264 14.2736 319.7203 56.5787 340.1027 5.8230 358.3351 328.1835 85.3617 358.5799 342.5706 27.2737 356.0004 343.5592 48.6783 45.2655 1.9143 342.0170 355.0373 30.7230 272.3202 354.5382 13.5528 355.9149 4.1215 357.7789 358.2368 5.8025 9.6891 354.1569 351.3248 12.5329 356.1219 6.9487 9.5550 6.0422 4.9608 11.7682 347.4697 346.2288 312.4508 
-18.9770 97.2078 175.5465 357.0711 357.5097 176.1285 357.1365 347.6558 359.9149 0.9778 7.8484 0.1520 2.6149 356.5636 2.2488 352.3350 3.3202 2.3914 338.2345 357.2467 14.2047 319.7947 56.6109 340.0204 5.8545 358.3360 328.1844 85.2846 358.5735 342.5629 27.2765 355.9619 343.4816 48.6926 45.2589 1.9248 342.0234 355.0192 30.7344 272.3195 354.5582 13.5990 355.9259 4.0866 357.7498 358.2126 5.8724 9.6717 354.1783 351.2627 12.5727 356.1245 6.9507 9.6054 6.0439 4.9434 11.7172 347.4874 346.1979 312.4512 
-18.9837 97.2064 175.5295 357.0689 357.5081 176.1125 357.1415 347.6550 359.9235 0.9777 7.8682 0.1553 2.6130 356.5422 2.2493 352.3221 3.3414 2.3944 338.2335 357.2551 14.2153 319.7880 56.5816 340.0182 5.8534 358.3145 328.1684 85.3136 358.5822 342.5288 27.2660 355.9605 343.4984 48.7042 45.2598 1.8899 342.0717 355.0401 30.7559 272.1285 354.6263 13.8291 355.9214 4.0636 357.7077 358.1902 5.9373 9.6949 354.2097 351.2150 12.6180 356.1159 6.9479 9.5162 6.0363 4.9794 11.8317 347.4876 346.1635 312.4461 
-18.9900 97.2050 175.5179 357.0662 357.4900 176.0950 357.1508 347.6548 359.9283 0.9672 7.8648 0.1608 2.6348 356.5346 2.2460 352.3007 3.3550 2.3908 338.2346 357.2437 14.2222 319.8102 56.5828 339.9956 5.8784 358.3142 328.1725 85.2222 358.5722 342.5267 27.2779 355.9712 343.5023 48.6878 45.2451 1.8806 342.1036 355.0479 30.7935 272.0983 354.6354 13.8660 355.9161 4.0083 357.6878 358.1790 6.0314 9.6866 354.2063 351.1400 12.6619 356.1009 6.9271 9.5652 6.0507 5.0007 11.8152 347.4887 346.1125 312.4228 
-18.9978 97.2050 175.4945 357.0640 357.4932 176.0747 357.1644 347.6529 359.9304 0.9547 7.8834 0.1635 2.6434 356.5561 2.2507 352.2909 3.3337 2.3954 338.2336 357.2598 14.2178 319.7882 56.5311 340.0303 5.8300 358.3381 328.1529 85.1871 358.5700 342.4460 27.2770 355.9522 343.5186 48.6910 45.2654 1.8603 342.0740 355.0378 30.8224 272.1446 354.6428 13.8562 355.9052 3.9959 357.6487 358.1647 6.0896 9.6716 354.1923 351.0675 12.7485 356.0810 6.9355 9.6503 6.0771 5.0058 11.7714 347.4577 346.0736 312.3822 
-19.0026 97.2024 175.4729 357.0669 357.4877 176.0486 357.1630 347.6461 359.9374 0.9743 7.9089 0.1722 2.6604 356.5471 2.2571 352.2489 3.3368 2.4021 338.2300 357.2519 14.2237 319.7707 56.5134 340.0335 5.8606 358.3346 328.1463 85.2017 358.5434 342.4659 27.2767 355.9645 343.5254 48.6704 45.2491 1.8573 342.1273 355.0335 30.8778 272.1140 354.6700 13.8851 355.9052 3.9680 357.5818 358.1459 6.1814 9.6735 354.1649 350.9668 12.8169 356.0751 6.9241 9.6463 6.0865 5.0525 11.7913 347.4467 346.0123 312.3803 
-19.0092 97.2006 175.4499 357.0631 357.4810 176.0214 357.1646 347.6423 359.9404 0.9792 7.9284 0.1779 2.6388 356.5487 2.2611 352.2656 3.3222 2.4052 338.2345 357.2493 14.2394 319.7713 56.4953 340.0177 5.8461 358.3509 328.1423 85.2391 358.5341 342.5194 27.2805 355.9820 343.5265 48.6347 45.2380 1.8846 342.1410 355.0360 30.9294 272.1916 354.6376 13.7878 355.8998 3.9545 357.3807 358.1139 6.2373 9.8368 354.1428 350.8827 12.8981 356.0589 6.8950 9.6150 6.1007 5.1247 11.8587 347.4604 345.9021 312.3582 
-19.0173 97.1974 175.4273 357.0566 357.4678 175.9953 357.1630 347.6363 359.9497 0.9868 7.9420 0.1792 2.6407 356.5444 2.2719 352.2506 3.3282 2.4172 338.2397 357.2464 14.2517 319.7435 56.4791 340.0365 5.8420 358.3352 328.1424 85.2401 358.5299 342.5243 27.3523 355.9861 343.6353 48.5598 45.0256 1.7802 342.2466 355.0662 31.0852 272.2674 354.6204 13.7221 355.8956 3.9124 357.3139 358.0775 6.3219 9.8450 354.3208 350.8384 12.9632 356.0299 6.8689 9.6597 6.1286 5.1919 11.8850 347.4653 345.7736 312.3102 
-19.0237 97.1958 175.3977 357.0527 357.4610 175.9664 357.1697 347.6281 359.9576 0.9833 7.9618 0.1791 2.6502 356.5488 2.2860 352.2388 3.3256 2.4317 338.2454 357.2435 14.2553 319.6899 56.4402 340.0979 5.8306 358.3168 328.1173 85.0674 358.5417 342.4081 27.4181 355.9894 343.7177 48.4993 44.8364 1.6965 342.3562 355.0681 31.2216 272.2303 354.6430 13.8303 355.8878 3.8778 357.2386 358.0528 6.4228 9.8441 353.8090 350.6999 13.0683 356.0144 6.8467 9.7064 6.1475 5.2733 11.8904 347.4669 345.6313 312.2812 
-19.0327 97.1943 175.3703 357.0437 357.4435 175.9430 357.1747 347.6141 359.9576 0.9758 7.9844 0.1805 2.6719 356.5366 2.2969 352.2065 3.3341 2.4427 338.2559 357.2393 14.2716 319.6943 56.4439 340.0660 5.8370 358.3309 328.1297 85.0153 358.5250 342.4008 27.4303 355.9860 343.7274 48.4929 44.7970 1.6931 342.3724 355.0291 31.2845 272.2722 354.6540 13.8938 355.8838 3.8310 357.1646 358.0249 6.5370 9.8492 353.6866 350.5520 13.1402 355.9797 6.7969 9.7292 6.1784 5.3622 11.9055 347.5106 345.4064 312.2200 
-19.0417 97.1916 175.3463 357.0369 357.4214 175.9206 357.1840 347.6087 359.9588 0.9677 8.0013 0.1791 2.6731 356.5012 2.3065 352.1870 3.3597 2.4537 338.2393 357.2342 14.3082 319.8228 56.4225 339.9639 5.7665 358.3736 328.1166 84.9720 358.5379 342.3582 27.4411 356.0046 343.7237 48.4575 44.7756 1.7218 342.4043 355.0431 31.3613 272.2918 354.6707 13.9355 355.8712 3.7602 357.1102 357.9998 6.6582 9.8386 353.8266 350.4623 13.1688 355.9576 6.7515 9.8004 6.2170 5.4469 11.8602 347.5123 345.2384 312.1851 
-19.0517 97.1884 175.3142 357.0304 357.4086 175.9016 357.1980 347.5992 359.9518 0.9483 8.0342 0.1751 2.6813 356.4635 2.3183 352.1625 3.3791 2.4672 338.2426 357.2392 14.3224 319.8447 56.3673 339.9580 5.7197 358.3893 328.1054 84.8580 358.5556 342.2509 27.4310 355.9893 343.7228 48.4836 44.7732 1.7239 342.3541 355.0183 31.4334 272.3359 354.7068 13.9169 355.8640 3.7088 357.0601 357.9799 6.7925 9.8073 353.8503 350.3239 13.2130 355.9281 6.7271 9.8490 6.2499 5.5114 11.8573 347.4554 345.1465 312.1561 
